#!OML:ASF X:\für Bonn\!DataBase\2005_08_11_Bastian_Final\c3d\Bastian.ASF
:FULLY-SPECIFIED
:DEGREES
70
root 2.38837 19.132 11.6106 719.284 3.0006 -4.61965
lowerback 10.8856 -1.44571 2.35673
upperback 3.39302 -1.62773 0.970181
thorax -2.59928 -0.810085 -0.109658
lowerneck -10.7773 -3.74813 -1.40198
upperneck -1.50007 -5.00878 7.97017
head 1.65848 -2.30947 2.57657
rclavicle -1.39646e-014 6.36111e-015
rhumerus -57.5813 2.94384 -88.7216
rradius 58.0398
rwrist -1.19101
rhand -21.1469 19.953
rfingers 7.12502
rthumb 5.23246 -9.96236
lclavicle -1.39646e-014 6.36111e-015
lhumerus -55.2259 8.81935 71.7408
lradius 55.6586
lwrist 188.705
lhand -21.7205 10.6643
lfingers 7.12502
lthumb 4.67862 40.5926
rfemur -27.8729 -1.41158 21.9394
rtibia 50.4793
rfoot -9.54635 2.08078
rtoes -56.5583
lfemur -21.5261 1.14994 -14.3284
ltibia 39.4143
lfoot 11.5122 -3.53597
ltoes -31.6061
71
root 2.37839 18.7939 11.8094 718.795 2.87496 -4.68252
lowerback 11.2263 -1.45855 2.42682
upperback 3.49679 -1.6258 1.01955
thorax -2.67818 -0.809078 -0.0911243
lowerneck -10.4545 -3.70487 -1.40572
upperneck -2.04799 -4.91085 7.90479
head 1.41376 -2.28241 2.56465
rclavicle -2.72832e-014 1.39149e-014
rhumerus -57.8064 2.77327 -88.7682
rradius 56.5002
rwrist -1.56604
rhand -21.3945 19.3787
rfingers 7.12502
rthumb 4.99348 -10.5425
lclavicle -2.72832e-014 1.39149e-014
lhumerus -55.2131 9.82249 71.1139
lradius 53.011
lwrist 188.739
lhand -21.3923 10.2483
lfingers 7.12502
lthumb 4.99555 40.1695
rfemur -27.8604 -1.73486 21.9951
rtibia 51.8163
rfoot -10.232 3.11962
rtoes -56.4163
lfemur -20.9057 1.16701 -14.2816
ltibia 40.2481
lfoot 9.73329 -3.42708
ltoes -29.649
72
root 2.36674 18.4478 12.0038 718.364 2.80072 -4.74325
lowerback 11.5543 -1.49119 2.47534
upperback 3.58039 -1.6518 1.07158
thorax -2.77072 -0.82216 -0.0537776
lowerneck -10.1281 -3.64897 -1.35624
upperneck -2.6311 -4.80037 7.81428
head 1.15578 -2.25032 2.53592
rclavicle -1.66482e-014 2.16675e-014
rhumerus -58.0118 2.66359 -88.8335
rradius 54.8504
rwrist -1.8049
rhand -21.915 19.0848
rfingers 7.12502
rthumb 4.49086 -10.8476
lclavicle -1.66482e-014 2.16675e-014
lhumerus -55.1496 10.9478 70.3704
lradius 50.3997
lwrist 188.918
lhand -21.0055 9.95602
lfingers 7.12502
lthumb 5.36907 39.868
rfemur -27.9673 -2.00833 22.0475
rtibia 53.2946
rfoot -11.0545 4.2546
rtoes -55.8115
lfemur -20.3898 1.22993 -14.2507
ltibia 41.4647
lfoot 6.8774 -3.54981
ltoes -26.9612
73
root 2.35488 18.1002 12.1933 718.032 2.72346 -4.8029
lowerback 11.8542 -1.5078 2.51361
upperback 3.63643 -1.65772 1.12474
thorax -2.87556 -0.825552 -0.0123418
lowerneck -9.85942 -3.59946 -1.34865
upperneck -3.19742 -4.69687 7.77096
head 0.91882 -2.21854 2.53017
rclavicle 4.59193e-014 -2.10712e-014
rhumerus -58.1897 2.57909 -88.8746
rradius 53.1424
rwrist -1.79598
rhand -22.5011 18.8827
rfingers 7.12502
rthumb 3.92489 -11.0609
lclavicle 4.59193e-014 -2.10712e-014
lhumerus -54.9694 12.2633 69.434
lradius 47.6516
lwrist 189.259
lhand -20.7345 9.87363
lfingers 7.12502
lthumb 5.6307 39.7788
rfemur -28.2059 -2.1673 22.1217
rtibia 54.8651
rfoot -11.9294 5.26852
rtoes -54.6406
lfemur -20.0876 1.30989 -14.2273
ltibia 43.0685
lfoot 2.97502 -3.93985
ltoes -24.2335
74
root 2.34311 17.7538 12.3777 717.876 2.69924 -4.85938
lowerback 12.0538 -1.52497 2.57619
upperback 3.6653 -1.66504 1.15529
thorax -2.95523 -0.829596 -0.00991411
lowerneck -9.70627 -3.5822 -1.32014
upperneck -3.77378 -4.63959 7.77499
head 0.703187 -2.20698 2.53366
rclavicle 2.83765e-014 -2.32578e-014
rhumerus -58.1773 2.38434 -88.8847
rradius 51.2984
rwrist -1.55906
rhand -23.1156 18.6819
rfingers 7.12502
rthumb 3.33149 -11.2718
lclavicle 2.83765e-014 -2.32578e-014
lhumerus -54.6352 13.7559 68.2708
lradius 44.8307
lwrist 189.765
lhand -20.6784 9.87596
lfingers 7.12502
lthumb 5.68488 39.7797
rfemur -28.6302 -2.2863 22.2577
rtibia 56.517
rfoot -13.0285 6.01192
rtoes -53.1191
lfemur -20.135 1.33503 -14.1988
ltibia 45.0886
lfoot -1.62953 -4.56816
ltoes -18.7847
75
root 2.3303 17.4211 12.5548 717.524 2.67293 -4.91802
lowerback 12.5203 -1.54824 2.59463
upperback 3.77582 -1.67638 1.20035
thorax -3.09325 -0.835401 0.0387804
lowerneck -9.67111 -3.53584 -1.28699
upperneck -4.37855 -4.543 7.78037
head 0.497572 -2.17413 2.53774
rclavicle 1.15295e-014 3.97569e-015
rhumerus -57.4882 2.14316 -88.8111
rradius 48.6673
rwrist -1.05024
rhand -23.7799 18.6475
rfingers 7.12502
rthumb 2.68996 -11.3153
lclavicle 1.15295e-014 3.97569e-015
lhumerus -54.2961 15.4201 67.011
lradius 42.2092
lwrist 190.186
lhand -20.7209 10.1569
lfingers 7.12502
lthumb 5.64381 40.0617
rfemur -28.7633 -2.24268 22.4691
rtibia 58.1971
rfoot -14.3774 6.41992
rtoes -51.0626
lfemur -20.0557 1.33456 -14.1453
ltibia 47.51
lfoot -6.64252 -5.48119
ltoes -11.9613
76
root 2.31522 17.0941 12.7259 716.923 2.66884 -4.95267
lowerback 13.2674 -1.54889 2.61035
upperback 3.9813 -1.65117 1.19024
thorax -3.28441 -0.822527 0.0318064
lowerneck -9.782 -3.5312 -1.1275
upperneck -4.9449 -4.51804 7.75228
head 0.328229 -2.17543 2.5033
rclavicle 5.76476e-015 1.19271e-015
rhumerus -56.4156 1.70249 -88.7353
rradius 45.8837
rwrist -0.643031
rhand -24.3342 18.709
rfingers 7.12502
rthumb 2.15458 -11.2599
lclavicle 5.76476e-015 1.19271e-015
lhumerus -53.8537 16.9203 65.8516
lradius 39.9044
lwrist 190.342
lhand -20.6124 11.7084
lfingers 7.12502
lthumb 5.74853 41.6104
rfemur -28.541 -2.14122 22.7128
rtibia 59.929
rfoot -15.9737 6.54648
rtoes -47.8519
lfemur -19.871 1.332 -14.0977
ltibia 50.3859
lfoot -11.7412 -6.58644
ltoes -6.03802
77
root 2.29867 16.7749 12.8928 716.355 2.71037 -5.04959
lowerback 13.9984 -1.5538 2.6715
upperback 4.19505 -1.62441 1.21106
thorax -3.45629 -0.808777 0.030305
lowerneck -9.94082 -3.5242 -0.843008
upperneck -5.58783 -4.49978 7.57678
head 0.135084 -2.1848 2.39799
rclavicle 1.57537e-014 2.18663e-015
rhumerus -55.1739 1.26625 -88.6687
rradius 43.3109
rwrist -0.853118
rhand -24.4248 18.5655
rfingers 7.12502
rthumb 2.06706 -11.4042
lclavicle 1.57537e-014 2.18663e-015
lhumerus -53.0353 18.4843 64.8924
lradius 37.7697
lwrist 190.084
lhand -20.4637 12.7536
lfingers 7.12502
lthumb 5.89213 42.6517
rfemur -28.2049 -2.03537 23.0851
rtibia 61.6975
rfoot -17.8374 6.38136
rtoes -43.244
lfemur -19.9406 1.33446 -13.9692
ltibia 53.6969
lfoot -16.7142 -7.70264
ltoes -2.94224
78
root 2.28004 16.4574 13.0564 716.123 2.77665 -5.23799
lowerback 14.3999 -1.53091 2.80055
upperback 4.33719 -1.56034 1.27007
thorax -3.52376 -0.776592 0.0164024
lowerneck -10.2 -3.5322 -0.572701
upperneck -6.19032 -4.50506 7.44182
head -0.0253036 -2.20297 2.30727
rclavicle -7.65321e-015 7.15625e-015
rhumerus -54.0528 0.827907 -88.613
rradius 40.9617
rwrist -1.10575
rhand -24.3612 18.4374
rfingers 7.12502
rthumb 2.12848 -11.5318
lclavicle -7.65321e-015 7.15625e-015
lhumerus -51.9505 20.0611 64.1888
lradius 35.8683
lwrist 189.569
lhand -20.2444 13.3144
lfingers 7.12502
lthumb 6.10386 43.2065
rfemur -28.1185 -1.87564 23.621
rtibia 63.5379
rfoot -19.8578 5.88112
rtoes -37.6299
lfemur -20.6302 1.39135 -13.7194
ltibia 57.3867
lfoot -21.2439 -8.50259
ltoes -1.44491
79
root 2.25934 16.1409 13.2159 716.129 2.89219 -5.54246
lowerback 14.6212 -1.51656 3.06142
upperback 4.40293 -1.49247 1.34473
thorax -3.57628 -0.743172 -0.0596341
lowerneck -10.5661 -3.56914 -0.422423
upperneck -6.64577 -4.54513 7.5133
head -0.110369 -2.22966 2.30225
rclavicle 3.52843e-015 -1.59028e-014
rhumerus -53.0111 0.398007 -88.6167
rradius 38.937
rwrist -1.28451
rhand -24.0832 17.7387
rfingers 7.12502
rthumb 2.39703 -12.2276
lclavicle 3.52843e-015 -1.59028e-014
lhumerus -50.7076 21.5771 63.6247
lradius 34.3838
lwrist 189.24
lhand -20.2614 13.0115
lfingers 7.12502
lthumb 6.08747 42.904
rfemur -28.2985 -1.76403 24.3145
rtibia 65.4961
rfoot -22.0097 5.17553
rtoes -31.6819
lfemur -21.7857 1.52846 -13.3226
ltibia 61.2874
lfoot -25.2481 -9.08681
ltoes -0.343615
80
root 2.2365 15.8388 13.3716 716.117 3.07654 -5.88139
lowerback 14.8633 -1.51664 3.34034
upperback 4.48904 -1.43847 1.43408
thorax -3.6182 -0.716329 -0.12804
lowerneck -10.9797 -3.60714 -0.292637
upperneck -7.13278 -4.58312 7.60597
head -0.197106 -2.25506 2.30792
rclavicle 3.62782e-015 -1.88845e-014
rhumerus -51.8206 -0.00399086 -88.6136
rradius 37.1251
rwrist -1.17413
rhand -23.7034 16.7246
rfingers 7.12502
rthumb 2.76377 -13.2372
lclavicle 3.62782e-015 -1.88845e-014
lhumerus -49.1722 22.7683 63.6113
lradius 33.3446
lwrist 188.94
lhand -20.1593 12.07
lfingers 7.12502
lthumb 6.18604 41.9596
rfemur -28.5198 -1.69004 25.0552
rtibia 67.5708
rfoot -24.1975 4.44024
rtoes -24.5781
lfemur -23.0048 1.65838 -12.8604
ltibia 65.1589
lfoot -28.7761 -9.46914
ltoes -0.181398
81
root 2.21302 15.5594 13.5268 716.284 3.31268 -6.12785
lowerback 14.8957 -1.51327 3.52677
upperback 4.53402 -1.4022 1.51311
thorax -3.58904 -0.69778 -0.156496
lowerneck -11.4117 -3.63706 -0.125676
upperneck -7.5899 -4.61844 7.62801
head -0.275144 -2.27967 2.28342
rclavicle 3.57812e-015 -5.36719e-015
rhumerus -50.6668 -0.388562 -88.5685
rradius 35.6009
rwrist -0.710826
rhand -23.4441 15.9803
rfingers 7.12502
rthumb 3.01425 -13.9781
lclavicle 3.57812e-015 -5.36719e-015
lhumerus -47.3441 23.8266 64.0576
lradius 32.7544
lwrist 188.495
lhand -20.09 12.4479
lfingers 7.12502
lthumb 6.25292 42.3356
rfemur -29.0134 -1.68793 25.677
rtibia 69.7628
rfoot -26.3036 3.80047
rtoes -16.2054
lfemur -24.3662 1.73928 -12.4888
ltibia 68.8019
lfoot -31.616 -9.72915
ltoes -0.50292
82
root 2.18536 15.3026 13.681 716.545 3.62767 -6.1345
lowerback 14.8443 -1.49566 3.45449
upperback 4.54628 -1.39112 1.52781
thorax -3.54633 -0.691445 -0.103817
lowerneck -11.8645 -3.68235 -0.0202125
upperneck -7.99298 -4.67056 7.70541
head -0.329076 -2.30932 2.28659
rclavicle -6.36111e-015 -3.77691e-015
rhumerus -49.4059 -0.566502 -88.6822
rradius 33.8983
rwrist -0.294447
rhand -24.0867 16.308
rfingers 7.12502
rthumb 2.39359 -13.6583
lclavicle -6.36111e-015 -3.77691e-015
lhumerus -45.2398 24.5166 64.9295
lradius 32.7109
lwrist 187.802
lhand -20.221 14.1296
lfingers 7.12502
lthumb 6.12651 44.021
rfemur -29.5963 -1.76954 25.9917
rtibia 71.9802
rfoot -28.3572 3.32846
rtoes -7.88613
lfemur -25.6709 1.75144 -12.3617
ltibia 72.0718
lfoot -33.714 -9.92753
ltoes -1.1047
